<svg xmlns="http://www.w3.org/2000/svg" xmlns:xlink="http://www.w3.org/1999/xlink" width="140" height="65.901" viewBox="0 0 130 65.901"><defs><style>.a{fill:#293339;font-size:13px;font-family:Garamond;}.b{fill:#0047a8;}.c{fill:url(#a);}.d{fill:#b50f78;}</style><linearGradient id="a" y1="0.638" x2="1" y2="0.378" gradientUnits="objectBoundingBox"><stop offset="0" stop-color="#b50f78"/><stop offset="0.586" stop-color="#fff"/><stop offset="1" stop-color="#0047a8"/></linearGradient></defs><g transform="translate(-59 -41)"><text class="a" transform="translate(59 103.901)"><tspan x="0" y="0">MEDICAL WORLD S.A</tspan></text><g transform="translate(70 41)"><path class="b" d="M35.016,11.494,44.534,0s20.45.963,24.1,23.549c-4.464.156-17.107,0-17.107,0a20.7,20.7,0,0,0-4.4-16.715c-2.639,5.567-.96,6.951-6.342,16.715-4.981-.013-12.161,0-12.161,0a44.273,44.273,0,0,1-5.23-17.7c-4.607,3.693-8.366,14.023-7.079,17.7-.53.175-16.318,0-16.318,0S2.256,4.1,25.548,0C28.1,2.835,35.016,11.494,35.016,11.494Z" transform="translate(87.215 50.482) rotate(180)"/><path class="c" d="M39.661,33.428a132.221,132.221,0,0,1-15.507-.857,74.92,74.92,0,0,1-12.432-2.435,27.685,27.685,0,0,1-8.373-3.807C1.3,24.819.176,23.146.019,21.356c-.19-2.167,1.029-4.392,3.623-6.613a39.755,39.755,0,0,1,10.925-6.1A105.191,105.191,0,0,1,31.133,3.73,164.137,164.137,0,0,1,51.676.662C56.7.223,61.685,0,66.5,0A132.227,132.227,0,0,1,82.007.858,74.92,74.92,0,0,1,94.439,3.293,27.684,27.684,0,0,1,102.812,7.1c2.053,1.51,3.173,3.183,3.33,4.972.19,2.167-1.029,4.392-3.623,6.613a39.754,39.754,0,0,1-10.925,6.1A105.187,105.187,0,0,1,75.028,29.7a164.13,164.13,0,0,1-20.543,3.068C49.464,33.206,44.476,33.428,39.661,33.428Zm25.127-28.9c-3.979,0-8.109.185-12.276.549-11.2.98-21.611,3.153-29.329,6.119a32.226,32.226,0,0,0-8.648,4.612c-2.056,1.675-3.026,3.349-2.884,4.974a5.255,5.255,0,0,0,2.561,3.683,21.744,21.744,0,0,0,6.47,2.812,60.356,60.356,0,0,0,9.627,1.8,107.993,107.993,0,0,0,12.032.631c3.979,0,8.109-.185,12.276-.549,11.2-.98,21.612-3.153,29.329-6.119A32.224,32.224,0,0,0,92.6,18.428c2.056-1.675,3.026-3.349,2.884-4.974A5.254,5.254,0,0,0,92.918,9.77a21.739,21.739,0,0,0-6.47-2.812,60.346,60.346,0,0,0-9.627-1.795A108,108,0,0,0,64.788,4.532Z" transform="translate(0 6.479)"/><path class="d" d="M518.732,1727.584l9.518-11.494s20.45.963,24.1,23.549c-4.464.156-16.259,0-16.259,0a23.355,23.355,0,0,0-5.249-16.715c-2.639,5.567-.96,6.951-6.342,16.715-4.981-.013-12.161,0-12.161,0a44.273,44.273,0,0,1-5.23-17.7c-4.607,3.693-7.661,14.023-6.374,17.7-.53.175-17.023,0-17.023,0s2.256-19.447,25.548-23.549C511.812,1718.925,518.732,1727.584,518.732,1727.584Z" transform="translate(-465.139 -1716.09)"/></g></g></svg>
