<svg xmlns="http://www.w3.org/2000/svg" xmlns:xlink="http://www.w3.org/1999/xlink" version="1.1" xml:space="preserve" width="23.101" height="23.101"><rect id="backgroundrect" width="100%" height="100%" x="0" y="0" fill="none" stroke="none"/>
<g class="currentLayer" style=""><title>Layer 1</title><g id="svg_1" class="" fill="#ffffff" fill-opacity="1">
	<path d="M8.258,4.458c0-0.144,0.02-0.455,0.06-0.931c0.043-0.477,0.223-0.976,0.546-1.5c0.32-0.522,0.839-0.991,1.561-1.406   C11.144,0.208,12.183,0,13.539,0h3.82v4.163h-2.797c-0.277,0-0.535,0.104-0.768,0.309c-0.231,0.205-0.35,0.4-0.35,0.581v2.59h3.914   c-0.041,0.507-0.086,1-0.138,1.476l-0.155,1.258c-0.062,0.425-0.125,0.819-0.187,1.182h-3.462v11.542H8.258V11.558H5.742V7.643   h2.516V4.458z" id="svg_2" fill="#ffffff" fill-opacity="1"/>
	<g id="svg_3" fill="#ffffff" fill-opacity="1">
	</g>
	<g id="svg_4" fill="#ffffff" fill-opacity="1">
	</g>
	<g id="svg_5" fill="#ffffff" fill-opacity="1">
	</g>
	<g id="svg_6" fill="#ffffff" fill-opacity="1">
	</g>
	<g id="svg_7" fill="#ffffff" fill-opacity="1">
	</g>
	<g id="svg_8" fill="#ffffff" fill-opacity="1">
	</g>
	<g id="svg_9" fill="#ffffff" fill-opacity="1">
	</g>
	<g id="svg_10" fill="#ffffff" fill-opacity="1">
	</g>
	<g id="svg_11" fill="#ffffff" fill-opacity="1">
	</g>
	<g id="svg_12" fill="#ffffff" fill-opacity="1">
	</g>
	<g id="svg_13" fill="#ffffff" fill-opacity="1">
	</g>
	<g id="svg_14" fill="#ffffff" fill-opacity="1">
	</g>
	<g id="svg_15" fill="#ffffff" fill-opacity="1">
	</g>
	<g id="svg_16" fill="#ffffff" fill-opacity="1">
	</g>
	<g id="svg_17" fill="#ffffff" fill-opacity="1">
	</g>
</g><g id="svg_18">
</g><g id="svg_19">
</g><g id="svg_20">
</g><g id="svg_21">
</g><g id="svg_22">
</g><g id="svg_23">
</g><g id="svg_24">
</g><g id="svg_25">
</g><g id="svg_26">
</g><g id="svg_27">
</g><g id="svg_28">
</g><g id="svg_29">
</g><g id="svg_30">
</g><g id="svg_31">
</g><g id="svg_32">
</g></g></svg>