<svg xmlns="http://www.w3.org/2000/svg" xmlns:xlink="http://www.w3.org/1999/xlink" version="1.1" style="enable-background:new 0 0 477.883 477.883;" xml:space="preserve" width="477.883" height="477.883"><rect id="backgroundrect" width="100%" height="100%" x="0" y="0" fill="none" stroke="none"/>
















<g class="currentLayer" style=""><title>Layer 1</title><g id="svg_1" class="selected" fill="#ffffff" fill-opacity="1">
	<g id="svg_2" fill="#ffffff" fill-opacity="1">
		<path d="M468.456,1.808c-4.811-2.411-10.478-2.411-15.289,0l0,0L9.433,223.675c-8.429,4.219-11.842,14.471-7.624,22.9    c2.401,4.798,6.919,8.188,12.197,9.151l176.111,32.034l32.034,176.111c1.311,7.219,7.091,12.793,14.353,13.841    c0.803,0.116,1.613,0.173,2.423,0.171c6.469,0.003,12.383-3.651,15.275-9.438L476.07,24.711    C480.292,16.284,476.883,6.03,468.456,1.808z" id="svg_3" fill="#ffffff" fill-opacity="1"/>
	</g>
</g><g id="svg_4">
</g><g id="svg_5">
</g><g id="svg_6">
</g><g id="svg_7">
</g><g id="svg_8">
</g><g id="svg_9">
</g><g id="svg_10">
</g><g id="svg_11">
</g><g id="svg_12">
</g><g id="svg_13">
</g><g id="svg_14">
</g><g id="svg_15">
</g><g id="svg_16">
</g><g id="svg_17">
</g><g id="svg_18">
</g></g></svg>